P3
3 3
255
240 121 213  13 12 56  250 120 210
120 230 100  25 140 23  0 230 123
240 123 230  120 230 250  32 120 220